# xmcd
#
# Track frame offsets: 
#        150
#        29518
#        51302
#        67943
#        82202
#        98457
#        126835
#        139250
#
# Disc length: 2245 seconds
#
# Revision: 0
# Processed by: cddbd v1.5.2PL0 Copyright (c) Steve Scherf et al.
# Submitted via: ExactAudioCopy v1.3
#
DISCID=6d08c308
DTITLE=Renee Geyer - Blues License
DYEAR=1978
DGENRE=Soul, Blues
TTITLE0=The Thrill Is Gone
TTITLE1=That Did It Babe
TTITLE2=Set Me Free
TTITLE3=Bellhop Blues
TTITLE4=Won't Be Long
TTITLE5=Stormy Monday
TTITLE6=Dust My Blues
TTITLE7=Feeling Is Believing
EXTD=
EXTT0=
EXTT1=
EXTT2=
EXTT3=
EXTT4=
EXTT5=
EXTT6=
EXTT7=
PLAYORDER=
